<svg xmlns="http://www.w3.org/2000/svg" width="52.313" height="34.002" viewBox="0 0 52.313 34.002">
  <path id="Icon_awesome-github" data-name="Icon awesome-github" d="M17.163,27.136c0,.136-.238.246-.538.246-.341.02-.579-.089-.579-.246,0-.136.238-.246.538-.246C16.894,26.869,17.163,26.979,17.163,27.136Zm-3.217-.307c-.072.136.134.293.445.334.269.068.579,0,.641-.136s-.134-.293-.445-.355C14.318,26.624,14.018,26.692,13.945,26.828Zm4.573-.116c-.3.048-.507.177-.476.334.031.136.3.225.61.177s.507-.177.476-.314S18.818,26.692,18.518,26.712ZM25.325.562C10.976.562,0,7.748,0,17.213c0,7.568,7.221,14.044,17.535,16.323,1.324.157,1.79-.382,1.79-.826,0-.423-.031-2.757-.031-4.19,0,0-7.242,1.024-8.762-2.034a6.153,6.153,0,0,0-2.876-2.5s-2.369-1.071.166-1.051A6.376,6.376,0,0,1,11.814,24.7c2.266,2.634,6.062,1.877,7.542,1.426a3.541,3.541,0,0,1,1.655-2.3C15.228,23.4,9.393,22.85,9.393,16.285c0-1.877.786-2.818,2.441-4.019A4.444,4.444,0,0,1,12.1,7.632c2.162-.444,7.138,1.843,7.138,1.843a36.674,36.674,0,0,1,12.994,0s4.976-2.293,7.138-1.843a4.442,4.442,0,0,1,.269,4.634c1.655,1.208,2.669,2.15,2.669,4.019,0,6.585-6.093,7.111-11.876,7.541a3.469,3.469,0,0,1,1.759,3.166c0,2.3-.031,5.145-.031,5.7,0,.444.476.983,1.79.826,10.345-2.266,17.359-8.742,17.359-16.31C51.313,7.748,39.674.562,25.325.562ZM10.056,24.1c-.134.068-.1.225.072.355a.543.543,0,0,0,.538.068c.134-.068.1-.225-.072-.355A.543.543,0,0,0,10.056,24.1Zm-1.117-.553c-.072.089.031.2.238.266a.413.413,0,0,0,.445-.048c.072-.089-.031-.2-.238-.266A.545.545,0,0,0,8.938,23.546Zm3.352,2.429c-.166.089-.1.293.134.423a.636.636,0,0,0,.672.068c.134-.089.072-.293-.134-.423A.635.635,0,0,0,12.29,25.975Zm-1.179-1c-.166.068-.166.246,0,.4a.607.607,0,0,0,.579.157c.166-.089.166-.266,0-.423A.529.529,0,0,0,11.111,24.972Z" transform="translate(0.5 -0.063)" fill="#fff" stroke="#fff" stroke-width="1"/>
</svg>
